<?xml version="1.0" encoding="UTF-8"?>
<svg width="327px" height="266px" viewBox="0 0 327 266" version="1.1" xmlns="http://www.w3.org/2000/svg" xmlns:xlink="http://www.w3.org/1999/xlink">
    <!-- Generator: Sketch 53 (72520) - https://sketchapp.com -->
    <title>Artboard</title>
    <desc>Created with Sketch.</desc>
    <g id="Artboard" stroke="none" stroke-width="1" fill="none" fill-rule="evenodd">
        <g id="components/box/icons/static/fee">
            <g id="Group-4" transform="translate(1.000000, 0.000000)">
                <g id="Group-2">
                    <g id="Group" transform="translate(60.037959, 0.000000)">
                        <path d="M23.26977,-1.63424829e-13 C10.4185504,-1.63424829e-13 -2.13162821e-14,10.4842581 -2.13162821e-14,23.4187253 C-2.13162821e-14,36.350995 10.4185504,46.8352531 23.26977,46.8352531 C36.1231734,46.8352531 46.5395401,36.350995 46.5395401,23.4187253 C46.5395401,10.4842581 36.1231734,-1.63424829e-13 23.26977,-1.63424829e-13" id="Fill-100" fill="#233545"></path>
                        <path d="M34.5408479,27.4772612 C34.5408479,32.0456893 30.4423022,34.6466922 24.3851594,35.0468465 L24.3851594,38.3481194 L21.4835341,38.3481194 L21.4835341,35.0468465 C17.9653134,34.8467694 14.5196334,33.8797298 11.5454674,31.7455736 L13.8667677,28.1108388 C15.970446,29.8781869 18.5093681,30.7785341 21.4835341,31.0119574 L21.4835341,24.8429121 C16.5870414,24.2093345 11.9444409,23.2756412 11.9444409,18.5071359 C11.9444409,14.1721311 15.7165538,11.3043587 21.4835341,10.9708968 L21.4835341,7.66962388 L24.3851594,7.66962388 L24.3851594,11.004243 C29.1003005,11.4377434 32.147007,13.6052458 33.525279,16.2395949 L29.6443552,18.173674 C28.9189489,16.5397106 27.214244,15.3392478 24.3851594,14.9724397 L24.3851594,21.1748311 C29.5718146,21.7750626 34.5408479,22.5086788 34.5408479,27.4772612 Z M16.655552,18.8939892 C16.655552,20.5456872 17.8864483,21.1560973 21.7656365,21.730601 L21.7656365,15.3392478 C18.1848474,15.5546866 16.655552,16.9909458 16.655552,18.8939892 Z M24.3206788,31.9567662 C27.6592674,31.701112 29.4307633,30.3132753 29.4307633,28.1949983 C29.4307633,26.6610735 28.5450154,26.2228093 24.3206788,25.5654129 L24.3206788,31.9567662 Z" id="$" fill="#FFFFFF" fill-rule="nonzero"></path>
                    </g>
                    <g id="close" transform="translate(0.018979, 1.018955)">
                        <g transform="translate(0.071299, 0.084261)" id="Shape">
                            <polygon fill="#4EBFAE" points="44.0083565 38.6074488 37.7214484 45.0420237 22.0041782 28.9555866 6.28690806 45.0420237 0 38.6074488 15.7172702 22.5210118 0 6.43457481 6.28690806 0 22.0041782 16.086437 37.7214484 0 44.0083565 6.43457481 28.2910863 22.5210118"></polygon>
                            <path d="M12.5738161,38.6074488 L6.28690806,45.0420237 L0,38.6074488 L6.28690806,32.172874 L12.5738161,38.6074488 Z M44.0083565,6.43457481 L37.7214484,12.8691496 L31.4345403,6.43457481 L37.7214484,0 L44.0083565,6.43457481 Z M31.4345403,38.6074488 L37.7214484,45.0420237 L44.0083565,38.6074488 L37.7214484,32.172874 L31.4345403,38.6074488 Z M0,6.43457481 L6.28690806,12.8691496 L12.5738161,6.43457481 L6.28690806,0 L0,6.43457481 Z" fill="#233545"></path>
                        </g>
                    </g>
                    <g id="Group-8" transform="translate(58.000000, 81.516374)">
                        <g id="Group-7">
                            <polygon id="Path" fill="#233545" fill-rule="nonzero" points="10.9854682 50.2811072 6.39088339 47.0128352 38.9255112 -6.75015599e-14 43.4580071 3.20542058"></polygon>
                            <path d="M11.5651066,25.7851832 C4.85980545,25.7851832 -5.68434189e-14,20.5716311 -5.68434189e-14,14.1500608 C-5.68434189e-14,7.79207042 4.85980545,2.57851832 11.5651066,2.57851832 C18.1473748,2.57851832 23.0071802,7.79207042 23.0071802,14.1500608 C23.0071802,20.5716311 18.1473748,25.7851832 11.5651066,25.7851832 Z" id="Path" fill="#4EBFAE"></path>
                            <path d="M38.3453004,47.7025888 C31.7015157,47.7025888 26.8417103,42.4890367 26.8417103,36.0674665 C26.8417103,29.7094761 31.7015157,24.495924 38.3453004,24.495924 C44.989085,24.495924 49.8488905,29.7094761 49.8488905,36.0674665 C49.8488905,42.4890367 44.989085,47.7025888 38.3453004,47.7025888 Z" id="Path" fill="#4EBFAE"></path>
                        </g>
                    </g>
                </g>
            </g>
            <g id="Group-4" transform="translate(4.000000, 85.000000)" stroke="#233545" stroke-dasharray="3,11" stroke-linecap="square">
                <g id="Group-2" stroke-width="6">
                    <path d="M20.4446277,0.501582827 C9.1536523,0.501582827 0,9.68248965 0,21.0090077 C0,32.3336014 9.1536523,41.5145082 20.4446277,41.5145082 C31.7375218,41.5145082 40.8892555,32.3336014 40.8892555,21.0090077 C40.8892555,9.68248965 31.7375218,0.501582827 20.4446277,0.501582827" id="Fill-100-Copy"></path>
                </g>
            </g>
        </g>
        <g id="components/box/icons/active/fees" transform="translate(0.000000, 133.000000)">
            <g id="Group-4" transform="translate(1.000000, 0.000000)">
                <g id="Group-2">
                    <g id="Group" transform="translate(60.037959, 0.000000)">
                        <path d="M23.26977,-1.63424829e-13 C10.4185504,-1.63424829e-13 -2.13162821e-14,10.4842581 -2.13162821e-14,23.4187253 C-2.13162821e-14,36.350995 10.4185504,46.8352531 23.26977,46.8352531 C36.1231734,46.8352531 46.5395401,36.350995 46.5395401,23.4187253 C46.5395401,10.4842581 36.1231734,-1.63424829e-13 23.26977,-1.63424829e-13" id="Fill-100" fill="#233545"></path>
                        <path d="M34.5408479,27.4772612 C34.5408479,32.0456893 30.4423022,34.6466922 24.3851594,35.0468465 L24.3851594,38.3481194 L21.4835341,38.3481194 L21.4835341,35.0468465 C17.9653134,34.8467694 14.5196334,33.8797298 11.5454674,31.7455736 L13.8667677,28.1108388 C15.970446,29.8781869 18.5093681,30.7785341 21.4835341,31.0119574 L21.4835341,24.8429121 C16.5870414,24.2093345 11.9444409,23.2756412 11.9444409,18.5071359 C11.9444409,14.1721311 15.7165538,11.3043587 21.4835341,10.9708968 L21.4835341,7.66962388 L24.3851594,7.66962388 L24.3851594,11.004243 C29.1003005,11.4377434 32.147007,13.6052458 33.525279,16.2395949 L29.6443552,18.173674 C28.9189489,16.5397106 27.214244,15.3392478 24.3851594,14.9724397 L24.3851594,21.1748311 C29.5718146,21.7750626 34.5408479,22.5086788 34.5408479,27.4772612 Z M16.655552,18.8939892 C16.655552,20.5456872 17.8864483,21.1560973 21.7656365,21.730601 L21.7656365,15.3392478 C18.1848474,15.5546866 16.655552,16.9909458 16.655552,18.8939892 Z M24.3206788,31.9567662 C27.6592674,31.701112 29.4307633,30.3132753 29.4307633,28.1949983 C29.4307633,26.6610735 28.5450154,26.2228093 24.3206788,25.5654129 L24.3206788,31.9567662 Z" id="$" fill="#FFFFFF" fill-rule="nonzero"></path>
                    </g>
                    <g id="close" transform="translate(0.018979, 1.018955)">
                        <g transform="translate(0.071299, 0.084261)" id="Shape">
                            <polygon fill="#FFFFFF" points="44.0083565 38.6074488 37.7214484 45.0420237 22.0041782 28.9555866 6.28690806 45.0420237 0 38.6074488 15.7172702 22.5210118 0 6.43457481 6.28690806 0 22.0041782 16.086437 37.7214484 0 44.0083565 6.43457481 28.2910863 22.5210118"></polygon>
                            <path d="M12.5738161,38.6074488 L6.28690806,45.0420237 L0,38.6074488 L6.28690806,32.172874 L12.5738161,38.6074488 Z M44.0083565,6.43457481 L37.7214484,12.8691496 L31.4345403,6.43457481 L37.7214484,0 L44.0083565,6.43457481 Z M31.4345403,38.6074488 L37.7214484,45.0420237 L44.0083565,38.6074488 L37.7214484,32.172874 L31.4345403,38.6074488 Z M0,6.43457481 L6.28690806,12.8691496 L12.5738161,6.43457481 L6.28690806,0 L0,6.43457481 Z" fill="#233545"></path>
                        </g>
                    </g>
                    <g id="Group-8" transform="translate(58.000000, 81.516374)">
                        <g id="Group-7">
                            <polygon id="Path" fill="#233545" fill-rule="nonzero" points="10.9854682 50.2811072 6.39088339 47.0128352 38.9255112 -6.75015599e-14 43.4580071 3.20542058"></polygon>
                            <path d="M11.5651066,25.7851832 C4.85980545,25.7851832 -5.68434189e-14,20.5716311 -5.68434189e-14,14.1500608 C-5.68434189e-14,7.79207042 4.85980545,2.57851832 11.5651066,2.57851832 C18.1473748,2.57851832 23.0071802,7.79207042 23.0071802,14.1500608 C23.0071802,20.5716311 18.1473748,25.7851832 11.5651066,25.7851832 Z" id="Path" fill="#FFFFFF"></path>
                            <path d="M38.3453004,47.7025888 C31.7015157,47.7025888 26.8417103,42.4890367 26.8417103,36.0674665 C26.8417103,29.7094761 31.7015157,24.495924 38.3453004,24.495924 C44.989085,24.495924 49.8488905,29.7094761 49.8488905,36.0674665 C49.8488905,42.4890367 44.989085,47.7025888 38.3453004,47.7025888 Z" id="Path" fill="#FFFFFF"></path>
                        </g>
                    </g>
                </g>
            </g>
            <g id="Group-4" transform="translate(4.000000, 85.000000)" stroke="#233545" stroke-dasharray="3,11" stroke-linecap="square">
                <g id="Group-2" stroke-width="6">
                    <path d="M20.4446277,0.501582827 C9.1536523,0.501582827 0,9.68248965 0,21.0090077 C0,32.3336014 9.1536523,41.5145082 20.4446277,41.5145082 C31.7375218,41.5145082 40.8892555,32.3336014 40.8892555,21.0090077 C40.8892555,9.68248965 31.7375218,0.501582827 20.4446277,0.501582827" id="Fill-100-Copy"></path>
                </g>
            </g>
        </g>
        <g id="components/box/icons/static/creativity" transform="translate(109.000000, 0.000000)">
            <g id="rocket" transform="translate(59.000000, 85.000000)">
                <g id="Shape">
                    <path d="M28.1864,43.7640244 L23.5191,31.3473171 L32.0749,22.8104878 L34.3574,32.3976829 L28.1864,43.7640244 Z M0.1848,15.8245122 L11.5775,9.66609756 L21.186,11.9435366 L12.6302,20.4803659 L0.1848,15.8245122 Z M1.7864,34.1120732 C3.8984,28.7021951 7.5504,31.6162195 7.5504,31.6162195 L9.9946,34.0495122 L12.4146,36.4564634 C12.4146,36.4564634 15.3043,40.0564634 9.8901,42.1780488 C8.25048703,42.6192687 6.54409151,42.7591075 4.8543,42.5907317 C3.9578,42.5073171 0.9636,44.3468293 0.0726,43.9319512 C-0.3564,43.0385366 1.4894,40.049878 1.4003,39.1520732 C1.21961528,37.4626414 1.35047286,35.7544773 1.7864,34.1120732 Z" fill="#4EBFAE"></path>
                    <path d="M7.37,22.6381707 C27.8553,2.42658537 43.9813,0.082195122 43.9813,0.082195122 C43.9813,0.082195122 41.6053,15.9946341 21.12,36.2073171 C21.12,36.2073171 15.7949,42.0540244 8.602,34.9560976 C5.00020927,31.8166596 4.46104342,26.4259084 7.37,22.6381707 Z" fill="#233545"></path>
                    <path d="M26.0106,18.0273171 C27.8850543,19.9610971 27.8412867,23.0426419 25.9126648,24.9226457 C23.984043,26.8026495 20.8954691,26.7744838 19.0016079,24.8596214 C17.1077467,22.944759 17.1204352,19.8629308 19.03,17.9636585 C20.9812104,16.0726488 24.0943557,16.1010387 26.0106,18.0273171 Z" fill="#4EBFAE"></path>
                </g>
            </g>
            <g id="gem" transform="translate(2.000000, 7.000000)">
                <g id="Shape">
                    <polygon fill="#4EBFAE" points="22 42 0 13.125 7.76470588 0 36.2352941 0 44 13.125"></polygon>
                    <polygon fill="#233545" points="0 13.125 7.76470588 0 36.2352941 0 44 13.125"></polygon>
                </g>
            </g>
            <g id="Group-4" transform="translate(4.000000, 85.000000)" stroke="#233545" stroke-dasharray="3,11" stroke-linecap="square">
                <g id="Group-2" stroke-width="6">
                    <path d="M20.4446277,0.501582827 C9.1536523,0.501582827 0,9.68248965 0,21.0090077 C0,32.3336014 9.1536523,41.5145082 20.4446277,41.5145082 C31.7375218,41.5145082 40.8892555,32.3336014 40.8892555,21.0090077 C40.8892555,9.68248965 31.7375218,0.501582827 20.4446277,0.501582827" id="Fill-100-Copy"></path>
                </g>
            </g>
            <g id="Group-3" transform="translate(56.000000, 5.000000)">
                <g id="Group" fill="#233545">
                    <path d="M23.26977,-1.63424829e-13 C10.4185504,-1.63424829e-13 -2.13162821e-14,10.4842581 -2.13162821e-14,23.4187253 C-2.13162821e-14,36.350995 10.4185504,46.8352531 23.26977,46.8352531 C36.1231734,46.8352531 46.5395401,36.350995 46.5395401,23.4187253 C46.5395401,10.4842581 36.1231734,-1.63424829e-13 23.26977,-1.63424829e-13" id="Fill-100"></path>
                </g>
                <g id="heart" transform="translate(11.000000, 12.000000)" fill="#FFFFFF">
                    <g transform="translate(0.250000, 0.000000)" id="Shape">
                        <path d="M12.5,23 C12.5,23 0,19.8216875 0,7.5339375 C0,3.76984375 3.19779412,6.38378239e-16 7.14264706,6.38378239e-16 C9.21549727,0.0821623273 11.1584259,1.00909073 12.5,2.555875 C13.8415741,1.00909073 15.7845027,0.0821623273 17.8573529,0 C21.8022059,6.38378239e-16 25,3.76984375 25,7.5339375 C25,19.7821563 12.5,23 12.5,23 Z"></path>
                    </g>
                </g>
            </g>
        </g>
        <g id="components/box/icons/active/creativity" transform="translate(109.000000, 133.000000)">
            <g id="rocket" transform="translate(59.000000, 85.000000)">
                <g id="Shape">
                    <path d="M28.1864,43.7640244 L23.5191,31.3473171 L32.0749,22.8104878 L34.3574,32.3976829 L28.1864,43.7640244 Z M0.1848,15.8245122 L11.5775,9.66609756 L21.186,11.9435366 L12.6302,20.4803659 L0.1848,15.8245122 Z M1.7864,34.1120732 C3.8984,28.7021951 7.5504,31.6162195 7.5504,31.6162195 L9.9946,34.0495122 L12.4146,36.4564634 C12.4146,36.4564634 15.3043,40.0564634 9.8901,42.1780488 C8.25048703,42.6192687 6.54409151,42.7591075 4.8543,42.5907317 C3.9578,42.5073171 0.9636,44.3468293 0.0726,43.9319512 C-0.3564,43.0385366 1.4894,40.049878 1.4003,39.1520732 C1.21961528,37.4626414 1.35047286,35.7544773 1.7864,34.1120732 Z" fill="#FFFFFF"></path>
                    <path d="M7.37,22.6381707 C27.8553,2.42658537 43.9813,0.082195122 43.9813,0.082195122 C43.9813,0.082195122 41.6053,15.9946341 21.12,36.2073171 C21.12,36.2073171 15.7949,42.0540244 8.602,34.9560976 C5.00020927,31.8166596 4.46104342,26.4259084 7.37,22.6381707 Z" fill="#233545"></path>
                    <path d="M26.0106,18.0273171 C27.8850543,19.9610971 27.8412867,23.0426419 25.9126648,24.9226457 C23.984043,26.8026495 20.8954691,26.7744838 19.0016079,24.8596214 C17.1077467,22.944759 17.1204352,19.8629308 19.03,17.9636585 C20.9812104,16.0726488 24.0943557,16.1010387 26.0106,18.0273171 Z" fill="#FFFFFF"></path>
                </g>
            </g>
            <g id="gem" transform="translate(2.000000, 7.000000)">
                <g id="Shape">
                    <polygon fill="#FFFFFF" points="22 42 0 13.125 7.76470588 0 36.2352941 0 44 13.125"></polygon>
                    <polygon fill="#233545" points="0 13.125 7.76470588 0 36.2352941 0 44 13.125"></polygon>
                </g>
            </g>
            <g id="Group-4" transform="translate(4.000000, 85.000000)" stroke="#233545" stroke-dasharray="3,11" stroke-linecap="square">
                <g id="Group-2" stroke-width="6">
                    <path d="M20.4446277,0.501582827 C9.1536523,0.501582827 0,9.68248965 0,21.0090077 C0,32.3336014 9.1536523,41.5145082 20.4446277,41.5145082 C31.7375218,41.5145082 40.8892555,32.3336014 40.8892555,21.0090077 C40.8892555,9.68248965 31.7375218,0.501582827 20.4446277,0.501582827" id="Fill-100-Copy"></path>
                </g>
            </g>
            <g id="Group-3" transform="translate(56.000000, 5.000000)">
                <g id="Group" fill="#233545">
                    <path d="M23.26977,-1.63424829e-13 C10.4185504,-1.63424829e-13 -2.13162821e-14,10.4842581 -2.13162821e-14,23.4187253 C-2.13162821e-14,36.350995 10.4185504,46.8352531 23.26977,46.8352531 C36.1231734,46.8352531 46.5395401,36.350995 46.5395401,23.4187253 C46.5395401,10.4842581 36.1231734,-1.63424829e-13 23.26977,-1.63424829e-13" id="Fill-100"></path>
                </g>
                <g id="heart" transform="translate(11.000000, 12.000000)" fill="#FFFFFF">
                    <g transform="translate(0.250000, 0.000000)" id="Shape">
                        <path d="M12.5,23 C12.5,23 0,19.8216875 0,7.5339375 C0,3.76984375 3.19779412,6.38378239e-16 7.14264706,6.38378239e-16 C9.21549727,0.0821623273 11.1584259,1.00909073 12.5,2.555875 C13.8415741,1.00909073 15.7845027,0.0821623273 17.8573529,0 C21.8022059,6.38378239e-16 25,3.76984375 25,7.5339375 C25,19.7821563 12.5,23 12.5,23 Z"></path>
                    </g>
                </g>
            </g>
        </g>
        <g id="components/box/icons/active/story" transform="translate(218.000000, 133.000000)">
            <g id="Group-5" transform="translate(4.000000, 5.000000)">
                <g id="Group-4" transform="translate(0.000000, 80.000000)" stroke="#233545" stroke-dasharray="3,11" stroke-linecap="square" stroke-width="6">
                    <g id="Group-2">
                        <path d="M20.4446277,0.501582827 C9.1536523,0.501582827 0,9.68248965 0,21.0090077 C0,32.3336014 9.1536523,41.5145082 20.4446277,41.5145082 C31.7375218,41.5145082 40.8892555,32.3336014 40.8892555,21.0090077 C40.8892555,9.68248965 31.7375218,0.501582827 20.4446277,0.501582827" id="Fill-100-Copy"></path>
                    </g>
                </g>
                <g id="Group-3" transform="translate(52.000000, 0.000000)" fill="#233545">
                    <g id="Group">
                        <path d="M23.26977,-1.63424829e-13 C10.4185504,-1.63424829e-13 -2.13162821e-14,10.4842581 -2.13162821e-14,23.4187253 C-2.13162821e-14,36.350995 10.4185504,46.8352531 23.26977,46.8352531 C36.1231734,46.8352531 46.5395401,36.350995 46.5395401,23.4187253 C46.5395401,10.4842581 36.1231734,-1.63424829e-13 23.26977,-1.63424829e-13" id="Fill-100"></path>
                    </g>
                </g>
                <g id="bullhorn">
                    <g transform="translate(0.750000, 0.000000)" id="Shape">
                        <path d="M4.31,30.81 L6.00875,40.0175 L13.93125,40 L11.5,30 L4.31,30.81 Z M12.75,30 L9,17.5 L32.1475,0 L40.25,33.75 L12.75,30 Z" fill="#FFFFFF"></path>
                        <path d="M16.5,11.25 L25.25,5 L31.5,32.5 L21.5,31.25 L16.5,11.25 Z M0.25,27.5 C-0.54125,24.32375 1.0475,20.85125 4,20 L9,17.5 L12.75,30 L7.75,31.25 C4.7975,32.10125 1.04125,30.6775 0.25,27.5 Z M37.525,22.39625 L34.625,10.31875 C35.2298136,10.1164077 35.8622987,10.0088853 36.5,10 C39.7492364,9.99682161 42.4571275,12.4876024 42.7248812,15.7257894 C42.9926349,18.9639764 40.7306299,21.8656994 37.525,22.39625 L37.525,22.39625 Z" fill="#233545"></path>
                    </g>
                </g>
                <g id="chat" transform="translate(62.000000, 9.000000)">
                    <g transform="translate(0.541667, 0.750000)" id="Shape">
                        <path d="M13.4583333,25.1472917 C10.6524328,25.2205383 7.88428176,24.4883904 5.4815,23.0375 L0,28.5 L0,12.57325 L0.0095,12.578 C0.00870833333,12.5012083 0,12.4291667 0,12.35 C0,5.042125 4.94554167,0 13.4583333,0 C21.971125,0 26.9166667,5.26616667 26.9166667,12.57325 C26.9166667,19.8803333 21.971125,25.1472917 13.4583333,25.1472917 Z" fill="#FFFFFF"></path>
                        <path d="M19.7869167,10.28375 C21.0985929,10.28375 22.1619167,11.3470737 22.1619167,12.65875 C22.1619167,13.9704263 21.0985929,15.03375 19.7869167,15.03375 C18.4752404,15.03375 17.4119167,13.9704263 17.4119167,12.65875 C17.4119167,11.3470737 18.4752404,10.28375 19.7869167,10.28375 L19.7869167,10.28375 Z M13.4583333,10.2916667 C14.7700096,10.2916667 15.8333333,11.3549904 15.8333333,12.6666667 C15.8333333,13.9783429 14.7700096,15.0416667 13.4583333,15.0416667 C12.1466571,15.0416667 11.0833333,13.9783429 11.0833333,12.6666667 C11.0833333,11.3549904 12.1466571,10.2916667 13.4583333,10.2916667 Z M7.125,10.2916667 C8.43667628,10.2916667 9.5,11.3549904 9.5,12.6666667 C9.5,13.9783429 8.43667628,15.0416667 7.125,15.0416667 C5.81332372,15.0416667 4.75,13.9783429 4.75,12.6666667 C4.75,11.3549904 5.81332372,10.2916667 7.125,10.2916667 Z" fill="#233545"></path>
                    </g>
                </g>
                <g id="user" transform="translate(54.000000, 75.000000)">
                    <g transform="translate(0.666667, 0.333333)" id="Shape">
                        <polygon fill="#FFFFFF" points="0 45.3333333 7.75733333 30.8146667 13.576 28.4 17.4546667 21.14 25.212 21.14 29.0906667 28.4 34.9093333 30.82 42.6666667 45.3333333"></polygon>
                        <polygon fill="#233545" points="32 13.3333333 30.6666667 17.3333333 29.3333333 17.3333333 28 21.3333333 22.6666667 25.3333333 20 25.3333333 14.6666667 21.3333333 13.3333333 17.3333333 12 17.3333333 10.6666667 13.3333333 13.3333333 13.3333333 12 5.33333333 21.3333333 0 30.6666667 5.33333333 29.3333333 13.3333333"></polygon>
                    </g>
                </g>
            </g>
        </g>
        <g id="components/box/icons/static/story" transform="translate(218.000000, 0.000000)">
            <g id="Group-5" transform="translate(4.000000, 5.000000)">
                <g id="Group-4" transform="translate(0.000000, 80.000000)" stroke="#233545" stroke-dasharray="3,11" stroke-linecap="square" stroke-width="6">
                    <g id="Group-2">
                        <path d="M20.4446277,0.501582827 C9.1536523,0.501582827 0,9.68248965 0,21.0090077 C0,32.3336014 9.1536523,41.5145082 20.4446277,41.5145082 C31.7375218,41.5145082 40.8892555,32.3336014 40.8892555,21.0090077 C40.8892555,9.68248965 31.7375218,0.501582827 20.4446277,0.501582827" id="Fill-100-Copy"></path>
                    </g>
                </g>
                <g id="Group-3" transform="translate(52.000000, 0.000000)" fill="#233545">
                    <g id="Group">
                        <path d="M23.26977,-1.63424829e-13 C10.4185504,-1.63424829e-13 -2.13162821e-14,10.4842581 -2.13162821e-14,23.4187253 C-2.13162821e-14,36.350995 10.4185504,46.8352531 23.26977,46.8352531 C36.1231734,46.8352531 46.5395401,36.350995 46.5395401,23.4187253 C46.5395401,10.4842581 36.1231734,-1.63424829e-13 23.26977,-1.63424829e-13" id="Fill-100"></path>
                    </g>
                </g>
                <g id="bullhorn">
                    <g transform="translate(0.750000, 0.000000)" id="Shape">
                        <path d="M4.31,30.81 L6.00875,40.0175 L13.93125,40 L11.5,30 L4.31,30.81 Z M12.75,30 L9,17.5 L32.1475,0 L40.25,33.75 L12.75,30 Z" fill="#4EBFAE"></path>
                        <path d="M16.5,11.25 L25.25,5 L31.5,32.5 L21.5,31.25 L16.5,11.25 Z M0.25,27.5 C-0.54125,24.32375 1.0475,20.85125 4,20 L9,17.5 L12.75,30 L7.75,31.25 C4.7975,32.10125 1.04125,30.6775 0.25,27.5 Z M37.525,22.39625 L34.625,10.31875 C35.2298136,10.1164077 35.8622987,10.0088853 36.5,10 C39.7492364,9.99682161 42.4571275,12.4876024 42.7248812,15.7257894 C42.9926349,18.9639764 40.7306299,21.8656994 37.525,22.39625 L37.525,22.39625 Z" fill="#233545"></path>
                    </g>
                </g>
                <g id="chat" transform="translate(62.000000, 9.000000)">
                    <g transform="translate(0.541667, 0.750000)" id="Shape">
                        <path d="M13.4583333,25.1472917 C10.6524328,25.2205383 7.88428176,24.4883904 5.4815,23.0375 L0,28.5 L0,12.57325 L0.0095,12.578 C0.00870833333,12.5012083 0,12.4291667 0,12.35 C0,5.042125 4.94554167,0 13.4583333,0 C21.971125,0 26.9166667,5.26616667 26.9166667,12.57325 C26.9166667,19.8803333 21.971125,25.1472917 13.4583333,25.1472917 Z" fill="#FFFFFF"></path>
                        <path d="M19.7869167,10.28375 C21.0985929,10.28375 22.1619167,11.3470737 22.1619167,12.65875 C22.1619167,13.9704263 21.0985929,15.03375 19.7869167,15.03375 C18.4752404,15.03375 17.4119167,13.9704263 17.4119167,12.65875 C17.4119167,11.3470737 18.4752404,10.28375 19.7869167,10.28375 L19.7869167,10.28375 Z M13.4583333,10.2916667 C14.7700096,10.2916667 15.8333333,11.3549904 15.8333333,12.6666667 C15.8333333,13.9783429 14.7700096,15.0416667 13.4583333,15.0416667 C12.1466571,15.0416667 11.0833333,13.9783429 11.0833333,12.6666667 C11.0833333,11.3549904 12.1466571,10.2916667 13.4583333,10.2916667 Z M7.125,10.2916667 C8.43667628,10.2916667 9.5,11.3549904 9.5,12.6666667 C9.5,13.9783429 8.43667628,15.0416667 7.125,15.0416667 C5.81332372,15.0416667 4.75,13.9783429 4.75,12.6666667 C4.75,11.3549904 5.81332372,10.2916667 7.125,10.2916667 Z" fill="#233545"></path>
                    </g>
                </g>
                <g id="user" transform="translate(54.000000, 75.000000)">
                    <g transform="translate(0.666667, 0.333333)" id="Shape">
                        <polygon fill="#4EBFAE" points="0 45.3333333 7.75733333 30.8146667 13.576 28.4 17.4546667 21.14 25.212 21.14 29.0906667 28.4 34.9093333 30.82 42.6666667 45.3333333"></polygon>
                        <polygon fill="#233545" points="32 13.3333333 30.6666667 17.3333333 29.3333333 17.3333333 28 21.3333333 22.6666667 25.3333333 20 25.3333333 14.6666667 21.3333333 13.3333333 17.3333333 12 17.3333333 10.6666667 13.3333333 13.3333333 13.3333333 12 5.33333333 21.3333333 0 30.6666667 5.33333333 29.3333333 13.3333333"></polygon>
                    </g>
                </g>
            </g>
        </g>
    </g>
</svg>