<?xml version="1.0" encoding="UTF-8"?>
<svg width="80px" height="86px" viewBox="0 0 80 86" version="1.1" xmlns="http://www.w3.org/2000/svg" xmlns:xlink="http://www.w3.org/1999/xlink">
    <!-- Generator: Sketch 53 (72520) - https://sketchapp.com -->
    <title>Brand/Logomark/Inverse_Filled</title>
    <desc>Created with Sketch.</desc>
    <g id="Wireframes/Post-Drop" stroke="none" stroke-width="1" fill="none" fill-rule="evenodd">
        <g id="section/footer" transform="translate(-680.000000, -28.000000)">
            <rect fill="#FFFFFF" x="0" y="0" width="1439" height="294"></rect>
            <g id="Group" transform="translate(719.000000, 147.000000) rotate(-90.000000) translate(-719.000000, -147.000000) translate(571.500000, -572.500000)" fill="#4EBFAE">
                <polygon id="Fill-132" transform="translate(147.707027, 719.533798) rotate(-180.000000) translate(-147.707027, -719.533798) " points="0.707027027 1438.79433 294.707027 1438.79433 294.707027 0.273263116 0.707027027 0.273263116"></polygon>
            </g>
            <g id="Brand/Logomark/Inverse_Filled" transform="translate(673.000000, 24.000000)" fill="#FFFFFF">
                <path d="M72.1542321,4.7 C80.1799018,4.7 86.7074464,11.2600847 86.7074464,19.3257627 L86.7074464,56.7505085 C86.7074464,64.8161864 80.1799018,71.3762712 72.1542321,71.3762712 L43.60425,71.3762712 C40.5437946,71.3762712 37.61175,72.3154746 35.114875,74.0935085 L19.7555268,87.3785763 C18.2859375,88.6547458 16.4596518,89.3 14.6405,89.3 C12.9640268,89.3 11.2946875,88.7551186 9.91783929,87.6438475 C8.09155357,86.1812712 7.05,83.9874068 7.05,81.6286441 L7.05,19.3257627 C7.05,11.2600847 13.5775446,4.7 21.6032143,4.7 L72.1542321,4.7 Z M59.5244025,35.2731541 C59.5171451,35.2661163 59.5026303,35.2590785 59.4881154,35.2520407 L38.8697835,25.0260807 C37.2513787,24.2237686 35.2628454,24.8430973 34.4354995,26.4125323 C33.6081535,27.9819673 34.254064,29.9032935 35.8724688,30.7056056 L52.8185459,39.1158067 L35.7998946,48.0545484 C34.203262,48.8913458 33.6081535,50.8267478 34.4717866,52.3750693 C35.0741525,53.4448187 36.1990527,54.0500717 37.3674974,54.0500717 C37.8972891,54.0500717 38.4343382,53.9233908 38.9351003,53.6629913 L59.5752045,42.8177027 C60.8162234,42.1702228 62.2894798,40.9808304 62.2749649,39.0383906 C62.2677075,37.4689556 61.3460151,36.2091849 59.5244025,35.2731541 Z" id="Combined-Shape"></path>
            </g>
        </g>
    </g>
</svg>