<?xml version="1.0" encoding="UTF-8"?>
<svg width="44px" height="44px" viewBox="0 0 44 44" version="1.1" xmlns="http://www.w3.org/2000/svg" xmlns:xlink="http://www.w3.org/1999/xlink">
    <!-- Generator: Sketch 53 (72520) - https://sketchapp.com -->
    <title>twitter-brands</title>
    <desc>Created with Sketch.</desc>
    <g id="Wireframes/Post-Drop" stroke="none" stroke-width="1" fill="none" fill-rule="evenodd">
        <g id="section/missed-airdrop" transform="translate(-1245.000000, -75.000000)">
            <rect fill="#FFFFFF" x="0" y="0" width="1440" height="195"></rect>
            <rect id="Rectangle" fill="#4EBFAE" x="0" y="0" width="1442" height="195"></rect>
            <g id="twitter-brands" opacity="0.800000012" transform="translate(1245.000000, 79.000000)" fill="#FFFFFF" fill-rule="nonzero">
                <path d="M39.4771094,8.91309375 C39.5050391,9.3039375 39.5050391,9.69486719 39.5050391,10.0857109 C39.5050391,22.0069609 30.4315,35.7430391 13.8477109,35.7430391 C8.73855469,35.7430391 3.99239844,34.2632813 0,31.6948672 C0.725914062,31.7785703 1.4238125,31.8065 2.17765625,31.8065 C6.39332031,31.8065 10.2740859,30.3826875 13.3730781,27.95375 C9.40860937,27.8699609 6.08626562,25.2735313 4.94157813,21.6999062 C5.5,21.7836094 6.05833594,21.8394688 6.6446875,21.8394688 C7.45430469,21.8394688 8.26400781,21.72775 9.01776563,21.5324141 C4.88580469,20.6947813 1.78672656,17.0653828 1.78672656,12.6821406 L1.78672656,12.5705078 C2.9871875,13.2405625 4.38324219,13.6593359 5.86282813,13.7151094 C3.43389063,12.0957891 1.84258594,9.33186719 1.84258594,6.20494531 C1.84258594,4.52985156 2.28920313,2.99432031 3.07097656,1.65421094 C7.51007813,7.12628125 14.1826953,10.6998203 21.6648437,11.09075 C21.5252813,10.4206953 21.4414922,9.72279688 21.4414922,9.0248125 C21.4414922,4.05521875 25.4618203,0.007046875 30.4592578,0.007046875 C33.0556875,0.007046875 35.4008359,1.095875 37.0480859,2.85475781 C39.0860938,2.46391406 41.0403984,1.71007031 42.7714375,0.677101562 C42.1012969,2.77105469 40.6774844,4.5299375 38.8069688,5.64660937 C40.6217109,5.45127344 42.3805938,4.948625 43.9998281,4.25072656 C42.7716094,6.03745312 41.2359922,7.62875781 39.4771094,8.91309375 Z" id="Path"></path>
            </g>
        </g>
    </g>
</svg>