<?xml version="1.0" encoding="UTF-8"?>
<svg width="245px" height="55px" viewBox="0 0 245 55" version="1.1" xmlns="http://www.w3.org/2000/svg" xmlns:xlink="http://www.w3.org/1999/xlink">
    <!-- Generator: Sketch 53 (72520) - https://sketchapp.com -->
    <title>navbar-brand logo-reg-filled</title>
    <desc>Created with Sketch.</desc>
    <defs>
        <polygon id="path-1" points="0 0 52.5399708 0 52.5399708 53.9999542 0 53.9999542"></polygon>
    </defs>
    <g id="Symbols" stroke="none" stroke-width="1" fill="none" fill-rule="evenodd">
        <g id="components/navbar/transparent" transform="translate(-150.000000, -62.000000)">
            <g id="navbar">
                <rect id="navbar-nav-bg-transparent" x="0" y="0" width="1440" height="171"></rect>
                <g id="Brand/Lockup/Horizontal/Regular" transform="translate(128.000000, 52.000000)">
                    <g id="Group" transform="translate(17.674487, 7.462967)">
                        <g id="Brand/Logomark/Regular">
                            <g id="Group-8" transform="translate(4.650000, 3.000000)">
                                <path d="M36.4249298,21.9180759 C36.4345034,23.1579311 35.4627811,23.9171177 34.6442367,24.3304028 L21.030551,31.2529274 C20.7002611,31.4191399 20.3460373,31.5 19.9966002,31.5 C19.2259239,31.5 18.4839684,31.1136683 18.0866633,30.4308495 C17.5170329,29.4425592 17.9095513,28.2071963 18.9626494,27.6730703 L30.1877173,21.9674904 L19.0105175,16.599277 C17.943059,16.0871629 17.5170329,14.8607844 18.0627292,13.8590174 C18.6084255,12.8572504 19.9200112,12.4619342 20.9874697,12.9740483 L34.586795,19.5012568 C34.5963687,19.505749 34.6059423,19.5102413 34.6107291,19.5147335 C35.8122182,20.1121999 36.420143,20.9163089 36.4249298,21.9180759" id="Fill-1" fill="#FFFFFF"></path>
                                <g id="Group-5">
                                    <mask id="mask-2" fill="white">
                                        <use xlink:href="#path-1"></use>
                                    </mask>
                                    <g id="Clip-4"></g>
                                    <path d="M48.5780601,33.2236831 C48.5780601,36.2485983 46.0465779,38.7060559 42.9410422,38.7060559 L24.1102029,38.7060559 C21.225819,38.7060559 18.4637744,39.5755475 16.1252119,41.2138525 C16.0781583,41.2458864 16.0358101,41.2824966 15.9934619,41.3191068 L5.79695295,49.8538525 C5.37817616,50.2108017 4.76177438,50.2428356 4.36652438,49.9366831 C4.17831009,49.7897847 3.96186366,49.5289373 3.96186366,49.1033441 L3.96186366,9.33554746 C3.96186366,6.31520847 6.48864045,3.85317458 9.59888152,3.85317458 L42.9410422,3.85317458 C46.0465779,3.85317458 48.5780601,6.31520847 48.5780601,9.33554746 L48.5780601,33.2236831 Z M42.9410422,-4.57627119e-05 L9.59888152,-4.57627119e-05 C4.30535473,-4.57627119e-05 -4.70535714e-05,4.18724237 -4.70535714e-05,9.33554746 L-4.70535714e-05,49.1033441 C-4.70535714e-05,50.6089373 0.686935089,52.0092763 1.89150652,52.9428356 C2.79964045,53.6521576 3.90069402,53.9999542 5.00645295,53.9999542 C6.20631902,53.9999542 7.41089045,53.5880898 8.38019402,52.7735136 L18.5108279,44.2936831 C20.1577029,43.1587678 22.0916047,42.5592763 24.1102029,42.5592763 L42.9410422,42.5592763 C48.234569,42.5592763 52.5399708,38.3719881 52.5399708,33.2236831 L52.5399708,9.33554746 C52.5399708,4.18724237 48.234569,-4.57627119e-05 42.9410422,-4.57627119e-05 L42.9410422,-4.57627119e-05 Z" id="Fill-3" fill="#4EBFAE" mask="url(#mask-2)"></path>
                                </g>
                                <path d="M34.6107291,19.5147335 C34.6059423,19.5102413 34.5963687,19.505749 34.586795,19.5012568 L20.9874697,12.9740483 C19.9200112,12.4619342 18.6084255,12.8572504 18.0627292,13.8590174 C17.5170329,14.8607844 17.943059,16.0871629 19.0105175,16.599277 L30.1877173,21.9674904 L18.9626494,27.6730703 C17.9095513,28.2071963 17.5170329,29.4425592 18.0866633,30.4308495 C18.4839684,31.1136683 19.2259239,31.5 19.9966002,31.5 C20.3460373,31.5 20.7002611,31.4191399 21.030551,31.2529274 L34.6442367,24.3304028 C35.4627811,23.9171177 36.4345034,23.1579311 36.4249298,21.9180759 C36.420143,20.9163089 35.8122182,20.1121999 34.6107291,19.5147335" id="Fill-6" fill="#233545"></path>
                            </g>
                        </g>
                        <g id="Brand/Wordmark/Regular" transform="translate(71.539589, 6.633748)" fill="#233545">
                            <path d="M25.3515316,11.8639544 C25.3515316,8.88474621 23.0209388,6.71718583 20.0175246,6.71718583 L9.21560661,6.71718583 L9.21560661,16.9656051 L20.0175246,16.9656051 C23.0209388,16.9656051 25.3515316,14.8436376 25.3515316,11.8639544 Z M31.1777778,11.8188365 C31.1777778,17.8689135 26.5170637,22.3384382 20.5554988,22.3384382 L9.21560661,22.3384382 L9.21560661,32.9482759 L3.38888889,32.9482759 L3.38888889,1.34482759 L20.5554988,1.34482759 C26.5170637,1.34482759 31.1777778,5.81435229 31.1777778,11.8188365 Z M52.7741283,18.6313474 C51.0741184,16.5408123 49.0062644,15.5624532 46.4332895,15.5624532 C42.1139013,15.5624532 39.540443,18.3202002 39.540443,22.1896552 C39.540443,26.0595781 42.1139013,28.7728755 46.4332895,28.7728755 C49.0062644,28.7728755 51.0741184,27.838498 52.7741283,25.7035133 L52.7741283,18.6313474 Z M58.2888889,11.2924838 L58.2888889,33.0872944 L52.7741283,33.0872944 L52.7741283,30.2846299 C50.9363581,32.4200825 48.2715431,33.6206897 45.1006403,33.6206897 C38.5756378,33.6206897 33.8888889,28.6395267 33.8888889,22.1896552 C33.8888889,15.7402516 38.5756378,10.7586207 45.1006403,10.7586207 C48.2715431,10.7586207 50.9363581,11.9596958 52.7741283,14.0946804 L52.7741283,11.2924838 L58.2888889,11.2924838 Z M71.9775747,15.702042 L71.9775747,25.7274714 C71.9775747,27.8595871 73.3811608,28.676071 75.463917,28.676071 C76.8679795,28.676071 78.1805969,28.3582578 79.4932143,27.7231088 L79.4932143,32.4869653 C77.9543656,33.2576383 76.4145644,33.6207851 74.4227771,33.6207851 C70.0310335,33.6207851 66.4994449,31.3073346 66.4994449,26.3172868 L66.4994449,15.702042 L62.5606401,15.702042 L62.5606401,10.8484725 L66.4994449,10.8484725 L66.4994449,4.04364494 L71.9775747,4.04364494 L71.9775747,10.8484725 L79.7656443,10.8484725 L79.7656443,15.702042 L71.9775747,15.702042 Z M98.9555556,10.0904703 L98.9555556,15.7019737 C95.5933394,15.520075 91.9079357,17.0707736 90.2958744,20.0819412 L90.2958744,32.9482759 L84.7222222,32.9482759 L84.7222222,10.5924915 L90.2958744,10.5924915 L90.2958744,14.5160325 C92.3682478,11.3676008 95.2706364,9.99928094 98.9555556,10.0904703 Z M118.630859,20.3662856 C118.087443,16.8968771 115.916636,15.2957555 112.705156,15.2957555 C109.312377,15.2957555 107.141095,17.2529418 106.55295,20.3662856 L118.630859,20.3662856 Z M113.97138,28.9506739 C116.639922,28.9506739 118.766475,28.1501131 120.801666,26.6374229 L122.837333,30.6851442 C120.394818,32.5089817 117.590185,33.6206897 113.790559,33.6206897 C105.874394,33.6206897 100.988889,28.8173251 100.988889,22.100756 C100.988889,15.8296187 105.421865,10.7586207 112.659474,10.7586207 C120.078381,10.7586207 124.827794,15.9629675 123.923212,24.4579886 L106.688566,24.4579886 C107.547943,27.3046349 110.126549,28.9506739 113.97138,28.9506739 Z M146.619876,21.8867328 C146.619876,17.9598362 144.010841,15.1294544 139.962909,15.1294544 C135.914504,15.1294544 133.305469,17.9598362 133.305469,21.8867328 C133.305469,25.813149 135.914504,28.6440111 139.962909,28.6440111 C144.010841,28.6440111 146.619876,25.813149 146.619876,21.8867328 Z M127.773216,21.8867328 C127.773216,15.448851 132.406454,10.1521515 139.962909,10.1521515 C147.519364,10.1521515 152.152129,15.448851 152.152129,21.8867328 C152.152129,28.3241342 147.519364,33.6208337 139.962909,33.6208337 C132.406454,33.6208337 127.773216,28.3241342 127.773216,21.8867328 Z M156.208659,30.5161071 L158.360102,26.1329298 C160.645922,28.0046416 163.559306,28.8264273 166.786707,28.8264273 C170.148013,28.8264273 171.806742,27.9590135 171.806742,26.4523264 C171.806742,24.9000111 170.058429,24.8087549 165.935182,24.261218 C160.645922,23.5763165 156.79143,22.3429175 156.79143,17.6403436 C156.79143,13.0746539 160.645922,10.1525357 166.651859,10.1525357 C172.16508,10.1525357 175.213312,12.6178929 176.602815,15.6317475 L172.16508,17.73208 C171.447932,15.8142599 169.476129,14.8555899 166.697122,14.8555899 C163.783267,14.8555899 162.259859,15.905516 162.259859,17.275319 C162.259859,18.69075 163.918116,19.0101466 167.548647,19.4669076 C173.10666,20.242585 177.364284,21.1561071 177.364284,26.1329298 C177.364284,31.0641244 173.195774,33.6207377 166.607538,33.6207377 C162.48382,33.6207377 159.07725,32.6164397 156.208659,30.5161071 Z" id="Combined-Shape"></path>
                        </g>
                    </g>
                </g>
            </g>
        </g>
    </g>
</svg>